<svg width="30" height="23" viewBox="0 0 30 23" fill="none" xmlns="http://www.w3.org/2000/svg">
<path d="M29.25 6.37833V18.6094C29.25 20.724 27.4875 22.4375 25.3125 22.4375H4.6875C3.64321 22.4375 2.64169 22.0342 1.90327 21.3163C1.16484 20.5984 0.75 19.6247 0.75 18.6094V6.37833L14.5485 13.7575C14.8298 13.9077 15.171 13.9077 15.4515 13.7575L29.25 6.3776V6.37833ZM25.3125 0.5625C26.3404 0.562593 27.3274 0.953445 28.0629 1.65157C28.7983 2.34969 29.2238 3.29973 29.2485 4.29875L15 11.9185L0.7515 4.29802L0.753 4.2324C0.795002 3.24529 1.22791 2.3122 1.96118 1.62823C2.69446 0.944271 3.67132 0.562408 4.6875 0.5625H25.3125Z" fill="#24FE7C"/>
</svg>
