<svg width="70" height="44" viewBox="0 0 70 44" fill="none" xmlns="http://www.w3.org/2000/svg">
<path fill-rule="evenodd" clip-rule="evenodd" d="M0.800781 21.9406C0.800781 21.2941 1.05759 20.6741 1.51471 20.217C1.97183 19.7599 2.59182 19.5031 3.23828 19.5031H60.7292L45.3875 4.16633C44.9298 3.70863 44.6727 3.08786 44.6727 2.44058C44.6727 1.7933 44.9298 1.17253 45.3875 0.714828C45.8452 0.257131 46.466 1.52505e-08 47.1133 0C47.7606 -1.52505e-08 48.3813 0.257131 48.839 0.714828L68.339 20.2148C68.566 20.4412 68.7461 20.7102 68.869 21.0064C68.9919 21.3025 69.0551 21.62 69.0551 21.9406C69.0551 22.2612 68.9919 22.5787 68.869 22.8748C68.7461 23.1709 68.566 23.4399 68.339 23.6663L48.839 43.1663C48.3813 43.624 47.7606 43.8812 47.1133 43.8811C46.466 43.8811 45.8452 43.624 45.3875 43.1663C44.9298 42.7086 44.6727 42.0879 44.6727 41.4406C44.6727 40.7933 44.9298 40.1725 45.3875 39.7148L60.7292 24.3781H3.23828C2.59182 24.3781 1.97183 24.1213 1.51471 23.6642C1.05759 23.207 0.800781 22.587 0.800781 21.9406Z" fill="#24FE7C"/>
</svg>
