<svg width="53" height="55" viewBox="0 0 53 55" fill="none" xmlns="http://www.w3.org/2000/svg">
<path d="M36.9482 12.8507L41.1286 0.975266L43.5437 5.37072L48.2416 7.19131L36.9482 12.8507Z" fill="white"/>
<path d="M29.5973 35.7473C29.0914 36.2366 28.8301 36.9788 28.942 37.7272C29.1721 38.851 30.1485 39.9872 31.6309 40.6341C31.8776 40.7627 32.1264 40.7668 32.2487 40.8933C32.2487 40.8933 32.2487 40.8933 32.3731 40.8954C33.4864 41.2873 34.7262 41.5569 35.9702 41.5777C37.4629 41.6027 38.9598 41.3788 40.463 40.7818C41.9661 40.1848 42.98 39.0819 43.2475 37.9665C43.3844 37.2222 43.1481 36.4717 42.6588 35.9658C41.4378 34.5766 39.6858 35.1695 38.4335 35.6462L38.3091 35.6442C36.806 36.2412 35.0645 36.2121 33.7065 35.5672L33.5821 35.5651C32.4688 35.1732 30.8641 34.3998 29.5973 35.7473ZM33.1299 40.2859C33.387 39.7925 33.895 39.1788 34.6413 39.1913C35.7609 39.21 36.3642 40.34 36.3642 40.34C36.4844 40.5909 36.7332 40.595 36.8597 40.4727C37.1105 40.3525 37.1147 40.1037 36.9924 39.9772C36.9924 39.9772 36.8742 39.6019 36.5073 39.2225C36.7581 39.1023 37.3822 38.9883 37.9979 39.3719C38.4914 39.629 38.7318 40.1307 38.8521 40.3816C36.9757 40.9724 34.9854 40.9391 33.1299 40.2859ZM30.2089 36.3797C31.0942 35.5235 32.0852 35.7889 33.5676 36.4359L33.692 36.438C35.2966 37.2114 37.2869 37.2447 38.9166 36.5253L39.041 36.5274C39.7915 36.2911 40.542 36.0548 41.0396 36.0631C41.5372 36.0714 41.9083 36.2021 42.2752 36.5815C42.6422 36.9609 42.7583 37.4606 42.6276 37.8317C42.4887 38.7004 41.6033 39.5566 40.3511 40.0334C40.1002 40.1536 39.9758 40.1515 39.7249 40.2718C39.6068 39.8965 39.244 39.2683 38.5059 38.7582C37.2745 37.991 36.2689 38.5964 36.018 38.7166C35.649 38.4616 35.2779 38.3309 34.7803 38.3226C33.412 38.2997 32.7733 39.2845 32.3897 39.9002C32.2653 39.8981 32.143 39.7717 32.143 39.7717C30.9074 39.2533 30.0512 38.3679 29.9414 37.4951C29.6988 37.1178 29.8294 36.7466 30.2089 36.3797Z" fill="white"/>
<path d="M0.932692 31.0374L3.17181 31.0748C3.60074 35.1882 5.02899 39.0694 7.46073 42.4697C8.19254 43.353 8.92226 44.3606 9.78055 45.1216C13.3298 48.665 17.897 50.8567 22.8645 51.4375L22.8271 53.6766L27.8029 53.7598L27.8403 51.5207C37.6863 50.5655 46.0212 43.2391 47.9251 33.5653C47.9271 33.4409 47.9313 33.1922 48.0578 33.0698C50.1954 31.7369 51.6032 29.3962 51.649 26.6595C51.7073 23.1765 49.5181 20.1535 46.174 19.2266C42.8053 12.3266 36.2914 7.48928 28.5914 6.61392L28.6288 4.37481L23.653 4.29159L23.6156 6.5307C13.0232 7.47342 4.54934 15.6685 3.25295 26.2234L1.01383 26.186L0.932692 31.0374ZM27.6915 8.3409L24.3328 8.28472L24.389 4.92605L27.7477 4.98222L27.6915 8.3409ZM37.1031 25.9185C37.4122 22.3152 40.4435 19.6285 44.0509 19.6888C47.6584 19.7491 50.596 22.6601 50.7866 26.1474L37.1031 25.9185ZM42.3131 26.8767L39.9866 32.0638C38.2659 30.7908 37.1775 28.9061 37.0885 26.7893L42.3131 26.8767ZM23.6442 49.4596L27.0029 49.5158L26.9467 52.8745L23.588 52.8183L23.6442 49.4596ZM3.91819 31.0873L5.78412 31.1185L5.86733 26.1427L4.0014 26.1115C5.28948 16.0542 13.3839 8.22604 23.4787 7.27499L23.4475 9.14092L28.4233 9.22414L28.4545 7.35821C35.5326 8.22317 41.6816 12.5566 44.9342 18.957C44.561 18.9507 44.1899 18.8201 43.9411 18.8159C40.458 18.7577 37.433 21.0713 36.5081 24.291C35.8055 21.6662 33.7261 19.5161 30.8754 18.8463C30.2555 18.7115 29.76 18.5788 29.138 18.5684C24.9086 18.4976 21.3673 21.9225 21.2965 26.1519C21.2528 28.7642 22.4573 31.1485 24.6714 32.6787C25.9008 33.5703 27.3873 33.9684 28.8801 33.9934C32.3631 34.0517 35.3882 31.7381 36.313 28.5184C36.7815 30.2682 37.8761 31.7797 39.3501 32.9242C40.5795 33.8158 42.066 34.2139 43.5587 34.2389C44.6783 34.2576 45.802 34.0276 46.8055 33.5466C44.9079 42.8471 36.9503 49.931 27.604 50.7701L27.6352 48.9042L22.6594 48.821L22.6282 50.6869C17.9095 50.1103 13.4666 47.9207 10.1621 44.6302C9.30377 43.8693 8.57196 42.986 7.96455 42.1049C5.7816 38.7087 4.35127 34.9519 3.91819 31.0873ZM22.4244 25.673C22.7335 22.0697 25.7648 19.383 29.3723 19.4433C32.9797 19.5036 35.9174 22.4147 36.1079 25.9019L22.4244 25.673ZM27.5101 26.6291L25.1836 31.8163C23.4628 30.5432 22.3745 28.6585 22.2855 26.5417L27.5101 26.6291ZM1.87212 26.9469L5.23079 27.0031L5.17462 30.3618L1.81594 30.3056L1.87212 26.9469Z" fill="white"/>
</svg>
