<svg width="44" height="43" viewBox="0 0 44 43" fill="none" xmlns="http://www.w3.org/2000/svg">
<rect x="9" y="25" width="26" height="3" fill="#3822E4"/>
<rect x="9" y="33" width="26" height="3" fill="#3822E4"/>
<rect x="9" y="40" width="26" height="3" fill="#3822E4"/>
<path d="M1.56531 13V1.48H3.30131L7.28531 9.64L11.2693 1.48H13.0053V13H11.2053V5.616L7.66931 13H6.90131L3.37331 5.616V13H1.56531ZM19.1808 13.24C18.3061 13.24 17.5381 13.0507 16.8768 12.672C16.2155 12.2933 15.6981 11.768 15.3248 11.096C14.9568 10.424 14.7728 9.65067 14.7728 8.776C14.7728 7.832 14.9541 7.01333 15.3168 6.32C15.6795 5.62133 16.1835 5.08 16.8288 4.696C17.4741 4.312 18.2208 4.12 19.0688 4.12C19.9648 4.12 20.7248 4.33067 21.3488 4.752C21.9781 5.168 22.4448 5.75733 22.7488 6.52C23.0528 7.28267 23.1675 8.18133 23.0928 9.216H21.1808V8.512C21.1755 7.57333 21.0101 6.888 20.6848 6.456C20.3595 6.024 19.8475 5.808 19.1488 5.808C18.3595 5.808 17.7728 6.05333 17.3888 6.544C17.0048 7.02933 16.8128 7.74133 16.8128 8.68C16.8128 9.55467 17.0048 10.232 17.3888 10.712C17.7728 11.192 18.3328 11.432 19.0688 11.432C19.5435 11.432 19.9515 11.328 20.2928 11.12C20.6395 10.9067 20.9061 10.6 21.0928 10.2L22.9968 10.776C22.6661 11.5547 22.1541 12.16 21.4608 12.592C20.7728 13.024 20.0128 13.24 19.1808 13.24ZM16.2048 9.216V7.76H22.1488V9.216H16.2048ZM30.6194 13V8.84C30.6194 8.568 30.6008 8.26667 30.5634 7.936C30.5261 7.60533 30.4381 7.288 30.2994 6.984C30.1661 6.67467 29.9634 6.42133 29.6914 6.224C29.4248 6.02667 29.0621 5.928 28.6034 5.928C28.3581 5.928 28.1154 5.968 27.8754 6.048C27.6354 6.128 27.4168 6.26667 27.2194 6.464C27.0274 6.656 26.8728 6.92267 26.7554 7.264C26.6381 7.6 26.5794 8.032 26.5794 8.56L25.4354 8.072C25.4354 7.336 25.5768 6.66933 25.8594 6.072C26.1474 5.47467 26.5688 5 27.1234 4.648C27.6781 4.29067 28.3608 4.112 29.1714 4.112C29.8114 4.112 30.3394 4.21867 30.7554 4.432C31.1714 4.64533 31.5021 4.91733 31.7474 5.248C31.9928 5.57867 32.1741 5.93067 32.2914 6.304C32.4088 6.67733 32.4834 7.032 32.5154 7.368C32.5528 7.69867 32.5714 7.968 32.5714 8.176V13H30.6194ZM24.6274 13V4.36H26.3474V7.04H26.5794V13H24.6274ZM37.8991 13.248C37.2591 13.248 36.7311 13.1413 36.3151 12.928C35.8991 12.7147 35.5684 12.4427 35.3231 12.112C35.0777 11.7813 34.8964 11.4293 34.7791 11.056C34.6617 10.6827 34.5844 10.3307 34.5471 10C34.5151 9.664 34.4991 9.392 34.4991 9.184V4.36H36.4511V8.52C36.4511 8.78667 36.4697 9.088 36.5071 9.424C36.5444 9.75467 36.6297 10.0747 36.7631 10.384C36.9017 10.688 37.1044 10.9387 37.3711 11.136C37.6431 11.3333 38.0084 11.432 38.4671 11.432C38.7124 11.432 38.9551 11.392 39.1951 11.312C39.4351 11.232 39.6511 11.096 39.8431 10.904C40.0404 10.7067 40.1977 10.4373 40.3151 10.096C40.4324 9.75467 40.4911 9.32267 40.4911 8.8L41.6351 9.288C41.6351 10.024 41.4911 10.6907 41.2031 11.288C40.9204 11.8853 40.5017 12.3627 39.9471 12.72C39.3924 13.072 38.7097 13.248 37.8991 13.248ZM40.7231 13V10.32H40.4911V4.36H42.4271V13H40.7231Z" fill="#3822E4"/>
</svg>
