<svg width="269" height="210" viewBox="0 0 269 210" fill="none" xmlns="http://www.w3.org/2000/svg">
<g opacity="0.5">
<g opacity="0.5">
<path opacity="0.5" d="M244.889 126.488C245.112 138.712 236.762 149.038 225.352 151.802C199.899 149.45 170.21 148.379 138.619 149.059C105.01 149.697 73.782 152.208 47.4134 156.071L32.317 156.387C23.1849 156.566 15.6462 149.36 15.4789 140.193C15.3115 131.025 22.498 123.448 31.6301 123.269C31.5979 122.63 31.5656 121.99 31.5334 121.35C31.0976 101.984 46.4834 85.9641 65.6325 85.6098C69.4375 85.5353 73.151 86.0823 76.5438 87.0899C76.3764 59.89 98.023 37.4269 125.296 36.8722C152.444 36.2993 174.886 57.3828 176.222 84.3739C178.863 83.62 181.572 83.2571 184.492 83.1792C198.19 82.911 210.098 90.5063 216.129 101.935C217.156 101.832 218.183 101.729 219.21 101.626C233.032 101.376 244.675 112.488 244.889 126.488Z" fill="#020202"/>
</g>
</g>
<path d="M98.245 96.8921C93.38 93.0009 85.9852 92.5467 80.6956 95.8312C75.2822 99.0975 72.2765 105.766 73.3783 112.024C75.243 107.092 78.9234 103.57 83.2549 100.78C87.481 97.8465 92.9729 96.6236 98.245 96.8921Z" fill="#E9E5F1"/>
<path d="M37.0602 101.848C40.9376 97.848 45.9247 94.8999 51.2056 93.392C61.9095 90.27 74.1414 93.0875 82.4044 100.527C80.9286 83.9282 86.8886 66.6468 98.5208 54.6455C110.135 42.7684 128.301 37.063 144.188 41.6886C149.648 43.2547 154.554 46.0091 159.281 49.1181C150.331 41.1965 138.497 36.5329 125.56 36.7862C98.2872 37.3408 76.6407 59.804 76.7897 87.1282C73.4153 85.9962 69.6834 85.5736 65.8784 85.6481C53.7022 85.8865 43.1413 92.3312 37.0602 101.848Z" fill="#E9E5F1"/>
</svg>
